<?xml version="1.0" encoding="iso-8859-1"?>
<!-- Generator: Adobe Illustrator 19.0.0, SVG Export Plug-In . SVG Version: 6.00 Build 0)  -->
<svg version="1.1" id="Layer_1" xmlns="http://www.w3.org/2000/svg" xmlns:xlink="http://www.w3.org/1999/xlink" x="0px" y="0px"
	 viewBox="0 0 512.002 512.002" style="enable-background:new 0 0 512.002 512.002;" xml:space="preserve">
<g>
	<g>
		<g>
			<path d="M25.593,490.872l-4.779,1.075l34.509-117.35l66.645,66.637c1.664,1.664,3.849,2.5,6.033,2.5
				c2.185,0,4.369-0.836,6.033-2.5c3.337-3.337,3.337-8.73,0-12.066l-70.767-70.767L324.268,97.4l70.767,70.767
				c3.337,3.336,8.73,3.336,12.066,0c3.337-3.337,3.337-8.73,0-12.066l-76.8-76.8c-3.336-3.337-8.73-3.337-12.066,0L45.168,352.368
				c-0.102,0.094-0.128,0.222-0.213,0.324c-0.393,0.435-0.666,0.947-0.981,1.459c-0.282,0.495-0.589,0.956-0.768,1.476
				c-0.043,0.137-0.145,0.23-0.188,0.367L0.351,501.061c-0.862,2.901-0.111,6.033,1.954,8.243c1.638,1.741,3.9,2.697,6.229,2.697
				c0.623,0,1.254-0.068,1.877-0.205l18.927-4.267c4.599-1.041,7.484-5.606,6.451-10.206S30.175,489.848,25.593,490.872z"/>
			<path d="M338.835,139.034c-3.336-3.337-8.73-3.337-12.066,0L113.435,352.368c-3.336,3.337-3.336,8.73,0,12.066
				c1.664,1.664,3.849,2.5,6.033,2.5c2.185,0,4.369-0.836,6.033-2.5L338.835,151.1C342.171,147.764,342.171,142.371,338.835,139.034
				z"/>
			<path d="M153.602,401.067c2.185,0,4.369-0.836,6.033-2.5l213.333-213.333c3.337-3.337,3.337-8.73,0-12.066s-8.73-3.337-12.066,0
				L147.568,386.501c-3.337,3.336-3.337,8.73,0,12.066C149.232,400.231,151.417,401.067,153.602,401.067z"/>
			<path d="M426.668,0.001c-20.693,0-37.274,8.141-57.233,28.1l-4.267,4.267c-3.337,3.337-3.337,8.73,0,12.066
				c3.336,3.337,8.73,3.337,12.066,0l4.267-4.267c16.623-16.623,29.295-23.1,45.167-23.1c37.641,0,68.267,30.626,68.267,68.267
				c0,15.881-6.477,28.544-23.1,45.167l-4.267,4.267c-3.337,3.336-3.337,8.73,0,12.066c1.664,1.664,3.849,2.5,6.033,2.5
				s4.369-0.836,6.033-2.5l4.267-4.267c19.959-19.959,28.1-36.54,28.1-57.233C512.002,38.281,473.721,0.001,426.668,0.001z"/>
			<path d="M355.901,53.701c-3.337-3.337-8.73-3.337-12.066,0s-3.337,8.73,0,12.066l96.367,96.367L149.07,453.266l-90.94,27.998
				l-9.429-9.429c-3.337-3.337-8.73-3.337-12.066,0s-3.337,8.73,0,12.066L49.7,496.965c1.63,1.63,3.797,2.5,6.033,2.5
				c0.845,0,1.681-0.119,2.509-0.375l97.869-30.131c1.331-0.41,2.543-1.143,3.524-2.125l298.667-298.667
				c3.337-3.337,3.337-8.73,0-12.066L355.901,53.701z"/>
		</g>
	</g>
</g>
<g>
</g>
<g>
</g>
<g>
</g>
<g>
</g>
<g>
</g>
<g>
</g>
<g>
</g>
<g>
</g>
<g>
</g>
<g>
</g>
<g>
</g>
<g>
</g>
<g>
</g>
<g>
</g>
<g>
</g>
</svg>
